PathFileType	4	(X/Y/Z)	49_1_rein_29_p1_0-200.trc
DataRate	CameraRate	NumFrames	NumMarkers	Units	OrigDataRate	OrigDataStartFrame	OrigNumFrames
44.0	44.0	5	27	m	44.0	150	201
Frame#	Time	RHip			RKnee			RAnkle			RBigToe			RSmallToe			RHeel			LHip			LKnee			LAnkle			LBigToe			LSmallToe			LHeel			Neck			Head			Nose			RShoulder			RElbow			RWrist			RThumb			RIndex			RPinky			LShoulder			LElbow			LWrist			LThumb			LIndex			LPinky			
		X1	Y1	Z1	X2	Y2	Z2	X3	Y3	Z3	X4	Y4	Z4	X5	Y5	Z5	X6	Y6	Z6	X7	Y7	Z7	X8	Y8	Z8	X9	Y9	Z9	X10	Y10	Z10	X11	Y11	Z11	X12	Y12	Z12	X13	Y13	Z13	X14	Y14	Z14	X15	Y15	Z15	X16	Y16	Z16	X17	Y17	Z17	X18	Y18	Z18	X19	Y19	Z19	X20	Y20	Z20	X21	Y21	Z21	X22	Y22	Z22	X23	Y23	Z23	X24	Y24	Z24	X25	Y25	Z25	X26	Y26	Z26	X27	Y27	Z27	
150	3.409090909090909	0.3798155526684977	0.6335199029272727	0.7282242841637794	0.34393321503277785	0.8262294087294038	1.1749305670593102	0.3129878085990466	1.034469963961133	1.5867956387657078	0.30471109033061194	0.8341358691174678	1.660936528934553	0.37396863806740954	0.8612946460922817	1.660752279534475	0.30522518962312606	1.0990511344814151	1.6219426818100942	0.1654674587435515	0.6697725288506525	0.7254175005902256	0.17339538912589644	0.8664837015689761	1.1833068653597956	0.18246600748998215	1.0254866475270181	1.56844214612632	0.15957561254423613	0.8567116909350293	1.6613542423992884	0.10842735243031304	0.9183720332537674	1.6532610634501337	0.2047262743048309	1.1216399297211244	1.619059560538006	0.27315309443448454	0.4422806374336523	0.2603243272323014	0.28090168092224893	0.29781842985083323	0.04555896263919391	0.27530138006188704	0.26481045963882993	0.20223100815245895	0.4366641524823589	0.45579310804411866	0.3105720350990249	0.4731401519602787	0.5089547705808777	0.5623433013367789	0.3282337141629325	0.4655210803818774	0.7793939717434603	0.20857592268931077	0.4368067254820872	0.8334534255672552	0.20486321266337762	0.4605561375117349	0.8789644685319729	0.23657167818146732	0.5180373014126815	0.8920138826452897	0.11620539453321721	0.4983965206269636	0.2905466119008627	0.0791434987061669	0.5111648798260954	0.5284110862427918	0.15326832410091465	0.4853483552895703	0.7528045022063615	0.20972540653721622	0.4338862866274263	0.8023871880732679	0.20676241143513346	0.444516000040483	0.8683768098826101	0.21927861659883444	0.5006571123050262	0.8820649080706473
151	3.4318181818181817	0.3796023990778932	0.6327970995607222	0.7242963499493619	0.33859882582476675	0.8084267385215349	1.1698232119545895	0.31300548428285724	1.034678031956425	1.5868904170676714	0.3048643294689999	0.8340213506249379	1.660761805971273	0.3739949389700507	0.8611574005889734	1.6607817102488127	0.30984047878699833	1.1158794482914145	1.6252435002657761	0.16938789090378054	0.6527292466615916	0.7220211311057831	0.17251339050825928	0.8637054738886988	1.1788729455002729	0.18466692202765786	1.0396550522766463	1.5706868470802036	0.15956225419327782	0.8562690028620642	1.6610622595676747	0.10761569423964176	0.9195740251698327	1.6570711842988184	0.20015139991949718	1.145465833843755	1.6284374584674546	0.2731716559003672	0.442252845639691	0.26033612328043276	0.28092031957249497	0.2978227251153451	0.04552938983196329	0.2691353430763673	0.26639807317341135	0.20180336192358395	0.43677694236073683	0.4556576931383722	0.3104484613231234	0.4729061418596976	0.5083005979655776	0.558615092597391	0.327803419570381	0.46653075437467895	0.7829311909969989	0.20877076399308123	0.43670961678154174	0.833636940010001	0.20525439127635559	0.4613612058953599	0.8821799492160319	0.23637477766448986	0.5171306625327967	0.8885114355014654	0.11623548609774773	0.49821144591789557	0.29047859760222944	0.07880981375323315	0.5085361408185496	0.5250853989679806	0.1538601375029726	0.4606487546738632	0.7542705775116828	0.20985807261041783	0.4337646017598113	0.802128752778896	0.20685408021515714	0.444321414628718	0.8682569706063082	0.21588979280699355	0.48754387599904475	0.8784215496945645
152	3.4545454545454546	0.3796466676485798	0.6329092929218374	0.7242434645900232	0.3439284209167304	0.8264077374912907	1.17494436978056	0.3172661099181482	1.050497390149246	1.5897289884528745	0.3037101838099669	0.8343149776157682	1.664739798375459	0.37382175021772185	0.8599074491633104	1.6603694759915328	0.3087546466636476	1.1120124318969065	1.620078786274699	0.16987028631054582	0.6551222765540482	0.7259116949943144	0.17226537220117913	0.8627611458242572	1.1787927099757776	0.18081764204454367	1.0223629796385874	1.567344138163226	0.16355400609171022	0.8396547884635223	1.657048171358852	0.10762518900589996	0.9178683318559572	1.656035583721303	0.19881763467152438	1.1404915566360347	1.6238946970047312	0.27318412740831566	0.44220925498940117	0.26030873280029715	0.2809484849409786	0.2977329710790662	0.045433611820048306	0.2757070729092933	0.26656910785308346	0.2046420237727909	0.4304345611946657	0.4576121734981962	0.31000609171698146	0.4728933006770425	0.507905885391663	0.5586574809816565	0.3285179803240507	0.4653527230468091	0.7793667019617272	0.21301661750345008	0.451706914384247	0.8407005153250311	0.21254097417267867	0.46427267674294737	0.8857940575185018	0.24094331215522302	0.5036294149360723	0.885305870026794	0.11623651473479919	0.4981813084300416	0.29048282151488436	0.08187320175393493	0.5201045809645716	0.523395413519956	0.14953600698211178	0.4709140837526607	0.7499024211935702	0.20989400093389896	0.4342897068758855	0.8025455267124598	0.21051861927051324	0.445446908241392	0.8682827396987312	0.2158281990527108	0.4870651772065648	0.8780547964467277
153	3.477272727272727	0.3796248035101114	0.6330085993060666	0.7243913098295744	0.34312666455789964	0.8235351342243592	1.1708285713816124	0.3171782081520025	1.0507577905106733	1.589789353538702	0.3047370862749023	0.8328621051729724	1.6605038155744272	0.3739187437101802	0.8598532234033586	1.6601454204161152	0.308667157513958	1.112069394225538	1.6200838119320238	0.165825435772744	0.6692337668654268	0.7251480734765947	0.173032202522626	0.8660578733908995	1.1832474106692055	0.18166857018181362	1.0266044293096397	1.5723094942194407	0.16361430738067959	0.8398846367690009	1.657361719802661	0.10759621689318961	0.9182442492680946	1.656267334726184	0.19931298889346644	1.145034553703401	1.628963166746112	0.2731911546775147	0.4421648125743883	0.26027072789506966	0.2809276010174462	0.2979869984032546	0.04544578335934454	0.2756855713083751	0.2664963690613974	0.20465525602653387	0.43056211695988444	0.45711903300196	0.3067633317510131	0.4728450791396187	0.5081011761181541	0.5586952079817342	0.33247595701631383	0.4767617953455548	0.7785608112567983	0.2130312975585452	0.45092850154862313	0.8368743997526045	0.21652345098515907	0.47495766513504073	0.8821429878197881	0.24108352602364017	0.5037999131190752	0.884934222261136	0.11646832392143344	0.49752053662128953	0.28722787314274356	0.08177081865711948	0.5198459427153658	0.5232345179531318	0.1545118160406829	0.4594057257935006	0.7507484059735778	0.21710640671659218	0.4321870436120783	0.8020483426155236	0.21093214822354636	0.4446109428741231	0.8678714908402138	0.21639038876240224	0.48497161312308945	0.8706399607089905
154	3.5	0.3796466438008866	0.6330367770276776	0.7242817913407448	0.34383034621958203	0.821942888474191	1.1665455304595458	0.3172463402214519	1.0506652232046236	1.5896725429371912	0.30097366168407647	0.8498248242629988	1.6643720519241447	0.3705509551906139	0.8774821258299039	1.664103008523941	0.30870526623790434	1.1120388954929736	1.6200033006087895	0.16573176615895324	0.6697779283342782	0.7248846974009168	0.16785021318651216	0.8613905405611463	1.1784177419643873	0.18148475280389129	1.0214839051880942	1.563541695968837	0.15451161497250088	0.8543315914521724	1.6607777845920566	0.10825087165275048	0.9172584370594206	1.652647243955593	0.19868637807861253	1.1409456907643445	1.6242945627714123	0.27316647709591463	0.44226275112905833	0.2602273303392606	0.28099770029376175	0.2978916153771683	0.045377323055061265	0.2725403744134308	0.27657275413734334	0.19878594791379045	0.4304522965079567	0.45652412765055483	0.3066428613584784	0.4729584199149985	0.5082599875826872	0.5585425647733853	0.33254195776903955	0.47697035337319915	0.7784468548903549	0.21272975014458004	0.4522722581049579	0.8442633741911466	0.22100330013667946	0.4757363512109013	0.8820366155720952	0.24506261409789823	0.5038666745182769	0.8848904687606426	0.1163048803934579	0.4954156615598494	0.2842876537041938	0.08176052975174639	0.519752752935289	0.5231717298841146	0.16538538271136513	0.4558667172452338	0.743338186291874	0.2165658495879448	0.43324813006949076	0.8060255103209821	0.21096650602991068	0.4448421039980514	0.8679605570816381	0.22010464682739944	0.4727899267913385	0.8708372251258767
